<svg width="132" height="37" viewBox="0 0 132 37" fill="none" xmlns="http://www.w3.org/2000/svg">
<path d="M29.2096 28.6378H23.9867V0H29.2096V28.6378Z" fill="white"/>
<path fill-rule="evenodd" clip-rule="evenodd" d="M14.4487 26.4995C13.5719 27.7214 11.5895 29.0578 8.95897 29.0578C3.88857 29.0578 0 24.4757 0 19.0918C0 13.7079 3.88857 9.1259 8.95897 9.1259C11.5895 9.1259 13.5719 10.4623 14.4487 11.6842V9.54593H19.6716V28.6378H14.4487V26.4995ZM5.26101 19.0918C5.26101 22.1084 7.16717 24.2848 10.0645 24.2848C12.9619 24.2848 14.8681 22.1084 14.8681 19.0918C14.8681 16.0753 12.9619 13.8989 10.0645 13.8989C7.16717 13.8989 5.26101 16.0753 5.26101 19.0918Z" fill="white"/>
<path fill-rule="evenodd" clip-rule="evenodd" d="M42.3451 37C47.3011 37 51.9903 34.3653 51.9903 27.4541V9.54593H46.7674V11.6842C45.7381 10.195 43.6794 9.1259 41.2395 9.1259C36.2454 9.1259 32.2425 13.4025 32.2425 18.7864C32.2425 24.1321 36.2454 28.4087 41.2395 28.4087C43.6794 28.4087 45.7381 27.3013 46.7674 25.8885V28.1414C46.7674 31.1579 44.7469 32.6471 42.4595 32.6471C40.2102 32.6471 38.7997 31.6925 38.1516 29.8215H33.043C33.4624 33.9071 36.9316 37 42.3451 37ZM42.3451 23.6739C39.7146 23.6739 37.5035 21.6883 37.5035 18.7864C37.5035 15.8462 39.7146 13.8989 42.3451 13.8989C44.9756 13.8989 47.1868 15.8462 47.1868 18.7864C47.1868 21.6883 44.9756 23.6739 42.3451 23.6739Z" fill="white"/>
<path d="M83.288 28.6378H78.0651V9.54593H83.288V12.6006C83.9361 10.7296 85.8804 9.31682 88.0153 9.31682C88.5871 9.31682 89.1209 9.35501 89.769 9.54593V14.8535C88.9684 14.5862 88.2821 14.4334 87.4053 14.4334C84.9273 14.4334 83.288 16.3426 83.288 19.5119V28.6378Z" fill="white"/>
<path fill-rule="evenodd" clip-rule="evenodd" d="M100.442 29.0578C105.283 29.0578 109.096 26.2704 110.201 22.4138H104.75C104.14 23.7503 102.538 24.5139 100.709 24.5139C97.43 24.5139 95.7525 22.5666 95.5619 20.3137H110.43C110.735 13.1352 106.046 9.1259 100.48 9.1259C94.6851 9.1259 90.4534 13.3643 90.4534 19.0537C90.4534 24.8576 94.6088 29.0578 100.442 29.0578ZM100.327 13.3643C102.081 13.3643 104.102 14.3189 104.711 16.8772H95.7525C96.2481 14.7389 97.8874 13.3643 100.327 13.3643Z" fill="white"/>
<path fill-rule="evenodd" clip-rule="evenodd" d="M132 27.4541C132 34.3653 127.311 37 122.355 37C116.941 37 113.472 33.9071 113.053 29.8215H118.161C118.809 31.6925 120.22 32.6471 122.469 32.6471C124.757 32.6471 126.777 31.1579 126.777 28.1414V25.8885C125.748 27.3013 123.689 28.4087 121.249 28.4087C116.255 28.4087 112.252 24.1321 112.252 18.7864C112.252 13.4025 116.255 9.1259 121.249 9.1259C123.689 9.1259 125.748 10.195 126.777 11.6842V9.54593H132V27.4541ZM117.513 18.7864C117.513 21.6883 119.724 23.6739 122.355 23.6739C124.985 23.6739 127.196 21.6883 127.196 18.7864C127.196 15.8462 124.985 13.8989 122.355 13.8989C119.724 13.8989 117.513 15.8462 117.513 18.7864Z" fill="white"/>
<path fill-rule="evenodd" clip-rule="evenodd" d="M56.0683 12.4376C56.0683 12.1004 56.2909 11.8038 56.6143 11.7099L65.0977 9.24771C65.2353 9.20778 65.3814 9.20779 65.519 9.24777L73.9937 11.7098C74.317 11.8037 74.5395 12.1003 74.5395 12.4375V17.368C74.5395 23.0652 70.9261 28.1323 65.5425 30.0266C65.3892 30.0805 65.2213 30.0805 65.068 30.0266C59.6828 28.1323 56.0683 23.0641 56.0683 17.3654V12.4376ZM70.0625 18.7865C70.0625 21.4715 67.8893 23.6482 65.2085 23.6482C62.5277 23.6482 60.3545 21.4715 60.3545 18.7865C60.3545 16.1014 62.5277 13.9248 65.2085 13.9248C67.8893 13.9248 70.0625 16.1014 70.0625 18.7865Z" fill="white"/>
</svg>
