<svg width="119" height="24" viewBox="0 0 119 24" fill="none" xmlns="http://www.w3.org/2000/svg">
<path d="M35.024 16.528H38.784V18H33.2V6.88H35.024V16.528ZM40.0974 6.88H42.0814L40.4014 10.688H39.1214L40.0974 6.88ZM44.1124 8.016C43.7817 8.016 43.5044 7.904 43.2804 7.68C43.0564 7.456 42.9444 7.17867 42.9444 6.848C42.9444 6.51733 43.0564 6.24 43.2804 6.016C43.5044 5.792 43.7817 5.68 44.1124 5.68C44.4324 5.68 44.7044 5.792 44.9284 6.016C45.1524 6.24 45.2644 6.51733 45.2644 6.848C45.2644 7.17867 45.1524 7.456 44.9284 7.68C44.7044 7.904 44.4324 8.016 44.1124 8.016ZM45.0084 9.184V18H43.1844V9.184H45.0084ZM51.3511 9.04C52.0445 9.04 52.6631 9.184 53.2071 9.472C53.7618 9.76 54.1938 10.1867 54.5031 10.752C54.8125 11.3173 54.9671 12 54.9671 12.8V18H53.1591V13.072C53.1591 12.2827 52.9618 11.68 52.5671 11.264C52.1725 10.8373 51.6338 10.624 50.9511 10.624C50.2685 10.624 49.7245 10.8373 49.3191 11.264C48.9245 11.68 48.7271 12.2827 48.7271 13.072V18H46.9031V9.184H48.7271V10.192C49.0258 9.82933 49.4045 9.54667 49.8631 9.344C50.3325 9.14133 50.8285 9.04 51.3511 9.04ZM60.2018 16.368L62.6978 9.184H64.6337L61.2738 18H59.0978L55.7538 9.184H57.7057L60.2018 16.368ZM73.5925 13.376C73.5925 13.7067 73.5712 14.0053 73.5285 14.272H66.7925C66.8458 14.976 67.1072 15.5413 67.5765 15.968C68.0458 16.3947 68.6218 16.608 69.3045 16.608C70.2858 16.608 70.9792 16.1973 71.3845 15.376H73.3525C73.0858 16.1867 72.6005 16.8533 71.8965 17.376C71.2032 17.888 70.3392 18.144 69.3045 18.144C68.4618 18.144 67.7045 17.9573 67.0325 17.584C66.3712 17.2 65.8485 16.6667 65.4645 15.984C65.0912 15.2907 64.9045 14.4907 64.9045 13.584C64.9045 12.6773 65.0858 11.8827 65.4485 11.2C65.8218 10.5067 66.3392 9.97333 67.0005 9.6C67.6725 9.22667 68.4405 9.04 69.3045 9.04C70.1365 9.04 70.8778 9.22133 71.5285 9.584C72.1792 9.94667 72.6858 10.4587 73.0485 11.12C73.4112 11.7707 73.5925 12.5227 73.5925 13.376ZM71.6885 12.8C71.6778 12.128 71.4378 11.5893 70.9685 11.184C70.4992 10.7787 69.9178 10.576 69.2245 10.576C68.5952 10.576 68.0565 10.7787 67.6085 11.184C67.1605 11.5787 66.8938 12.1173 66.8085 12.8H71.6885ZM79.3355 9.04C80.0288 9.04 80.6475 9.184 81.1915 9.472C81.7462 9.76 82.1782 10.1867 82.4875 10.752C82.7968 11.3173 82.9515 12 82.9515 12.8V18H81.1435V13.072C81.1435 12.2827 80.9462 11.68 80.5515 11.264C80.1568 10.8373 79.6182 10.624 78.9355 10.624C78.2528 10.624 77.7088 10.8373 77.3035 11.264C76.9088 11.68 76.7115 12.2827 76.7115 13.072V18H74.8875V9.184H76.7115V10.192C77.0102 9.82933 77.3888 9.54667 77.8475 9.344C78.3168 9.14133 78.8128 9.04 79.3355 9.04ZM86.9061 10.672V15.552C86.9061 15.8827 86.9808 16.1227 87.1301 16.272C87.2901 16.4107 87.5568 16.48 87.9301 16.48H89.0501V18H87.6101C86.7888 18 86.1595 17.808 85.7221 17.424C85.2848 17.04 85.0661 16.416 85.0661 15.552V10.672H84.0261V9.184H85.0661V6.992H86.9061V9.184H89.0501V10.672H86.9061ZM89.6233 13.552C89.6233 12.6667 89.8046 11.8827 90.1673 11.2C90.5406 10.5173 91.0419 9.98933 91.6713 9.616C92.3113 9.232 93.0153 9.04 93.7833 9.04C94.4766 9.04 95.0793 9.17867 95.5913 9.456C96.1139 9.72267 96.5299 10.0587 96.8393 10.464V9.184H98.6793V18H96.8393V16.688C96.5299 17.104 96.1086 17.4507 95.5753 17.728C95.0419 18.0053 94.4339 18.144 93.7513 18.144C92.9939 18.144 92.3006 17.952 91.6713 17.568C91.0419 17.1733 90.5406 16.6293 90.1673 15.936C89.8046 15.232 89.6233 14.4373 89.6233 13.552ZM96.8393 13.584C96.8393 12.976 96.7113 12.448 96.4553 12C96.2099 11.552 95.8846 11.2107 95.4793 10.976C95.0739 10.7413 94.6366 10.624 94.1673 10.624C93.6979 10.624 93.2606 10.7413 92.8553 10.976C92.4499 11.2 92.1193 11.536 91.8633 11.984C91.6179 12.4213 91.4953 12.944 91.4953 13.552C91.4953 14.16 91.6179 14.6933 91.8633 15.152C92.1193 15.6107 92.4499 15.9627 92.8553 16.208C93.2713 16.4427 93.7086 16.56 94.1673 16.56C94.6366 16.56 95.0739 16.4427 95.4793 16.208C95.8846 15.9733 96.2099 15.632 96.4553 15.184C96.7113 14.7253 96.8393 14.192 96.8393 13.584ZM101.503 8.016C101.172 8.016 100.895 7.904 100.671 7.68C100.447 7.456 100.335 7.17867 100.335 6.848C100.335 6.51733 100.447 6.24 100.671 6.016C100.895 5.792 101.172 5.68 101.503 5.68C101.823 5.68 102.095 5.792 102.319 6.016C102.543 6.24 102.655 6.51733 102.655 6.848C102.655 7.17867 102.543 7.456 102.319 7.68C102.095 7.904 101.823 8.016 101.503 8.016ZM102.399 9.184V18H100.575V9.184H102.399ZM106.118 10.464C106.384 10.016 106.736 9.66933 107.174 9.424C107.622 9.168 108.15 9.04 108.758 9.04V10.928H108.294C107.579 10.928 107.035 11.1093 106.662 11.472C106.299 11.8347 106.118 12.464 106.118 13.36V18H104.294V9.184H106.118V10.464ZM118.014 13.376C118.014 13.7067 117.993 14.0053 117.95 14.272H111.214C111.268 14.976 111.529 15.5413 111.998 15.968C112.468 16.3947 113.044 16.608 113.726 16.608C114.708 16.608 115.401 16.1973 115.806 15.376H117.774C117.508 16.1867 117.022 16.8533 116.318 17.376C115.625 17.888 114.761 18.144 113.726 18.144C112.884 18.144 112.126 17.9573 111.454 17.584C110.793 17.2 110.27 16.6667 109.886 15.984C109.513 15.2907 109.326 14.4907 109.326 13.584C109.326 12.6773 109.508 11.8827 109.87 11.2C110.244 10.5067 110.761 9.97333 111.422 9.6C112.094 9.22667 112.862 9.04 113.726 9.04C114.558 9.04 115.3 9.22133 115.95 9.584C116.601 9.94667 117.108 10.4587 117.47 11.12C117.833 11.7707 118.014 12.5227 118.014 13.376ZM116.11 12.8C116.1 12.128 115.86 11.5893 115.39 11.184C114.921 10.7787 114.34 10.576 113.646 10.576C113.017 10.576 112.478 10.7787 112.03 11.184C111.582 11.5787 111.316 12.1173 111.23 12.8H116.11Z" fill="#FFFFFF"/>
<g clip-path="url(#clip0_871_1231)">
<mask id="mask0_871_1231" style="mask-type:luminance" maskUnits="userSpaceOnUse" x="0" y="0" width="24" height="24">
<path d="M24 0H0V24H24V0Z" fill="white"/>
</mask>
<g mask="url(#mask0_871_1231)">
<path fill-rule="evenodd" clip-rule="evenodd" d="M21.375 22.619V1.38082C22.9376 2.09683 24 3.67298 24 5.47241V18.5273C24 20.3268 22.9376 21.9029 21.375 22.619ZM19.5 0.937394V23.0624L17.625 23.2967V0.703017L19.5 0.937394ZM15.75 0.468642L13.875 0.234267V23.7655L15.75 23.5311V0.468642ZM11.4419 0.0696616C11.6272 0.0464953 11.8136 0.034912 12 0.0349121V23.9648C11.8136 23.9648 11.6272 23.9533 11.4419 23.9301L3.94184 22.9926C1.68992 22.7111 -9.92025e-08 20.7968 0 18.5273L5.70647e-07 5.47241C6.69848e-07 3.20296 1.68992 1.28865 3.94184 1.00716L11.4419 0.0696616ZM6 18C6.62132 18 7.125 17.4963 7.125 16.875C7.125 16.2536 6.62132 15.75 6 15.75C5.37868 15.75 4.875 16.2536 4.875 16.875C4.875 17.4963 5.37868 18 6 18Z" fill="#FFFFFF"/>
</g>
</g>
<defs>
<clipPath id="clip0_871_1231">
<rect width="24" height="24" fill="white"/>
</clipPath>
</defs>
</svg>
