<svg xmlns="http://www.w3.org/2000/svg" width="726" height="259" viewBox="0 0 726 259" fill="none"><path d="M304.189 111.97C304.189 127.76 308.679 128.29 316.539 128.29V130H283.609V128.29C289.719 128.29 291.839 124.87 291.839 112.37V51.4599C291.839 42.3799 290.089 39.0899 283.859 39.0899V37.3799H306.439C331.259 37.3799 347.729 40.5399 347.729 63.9599C347.729 87.3799 331.259 90.4099 306.439 90.4099H304.189V111.98V111.97ZM306.439 88.6799C321.659 88.6799 334.129 88.2799 334.129 63.9399C334.129 39.5999 321.029 39.0699 306.439 39.0699H304.189V88.6699H306.439V88.6799Z" fill="#FFF"></path><path d="M378.41 131.18C359.45 131.18 349.59 116.839 349.59 99.5995C349.59 82.3595 359.45 68.0195 378.41 68.0195C397.37 68.0195 407.1 82.2295 407.1 99.5995C407.1 116.969 397.49 131.18 378.41 131.18ZM378.41 69.7395C368.81 69.7395 362.32 75.7895 362.32 99.5995C362.32 123.409 368.81 129.469 378.41 129.469C388.01 129.469 394.25 123.419 394.25 99.5995C394.25 75.7795 387.89 69.7395 378.41 69.7395Z" fill="#FFFFFF"></path><path d="M438.04 129.99H417.08V128.28C421.82 126.83 422.07 124.47 422.07 117.75V81.3097C422.07 76.7097 421.07 74.8697 415.83 73.4197V71.8397L432.92 68.0197V117.75C432.92 125.12 433.54 127.09 438.03 128.28V129.99H438.04ZM419.95 50.3897C419.95 46.5797 422.69 43.6797 426.31 43.6797C429.93 43.6797 432.67 46.5797 432.67 50.3897C432.67 54.1997 429.8 57.0997 426.31 57.0997C422.82 57.0997 419.95 54.0697 419.95 50.3897Z" fill="#FFFFFF"></path><path d="M502.659 129.99H481.699V128.409C486.439 126.959 486.689 124.47 486.689 117.75V89.4695C486.689 80.5195 482.199 74.5995 473.969 74.5995C467.479 74.5995 462.239 81.1795 461.249 85.9195V117.89C461.249 125.13 461.869 127.1 466.359 128.28V129.99H445.399V128.28C450.139 126.83 450.269 124.6 450.269 117.89V81.1795C450.269 76.5695 449.269 74.8695 444.029 73.4195V71.8395L461.239 68.0195V81.8295C463.859 74.1995 472.469 68.0195 480.329 68.0195C490.429 68.0195 497.549 73.1495 497.549 89.0695V117.75C497.549 124.99 498.299 127.219 502.659 128.409V129.99Z" fill="#FFFFFF"></path><path d="M543.82 119.859C542.07 125.649 536.46 131.179 529.22 131.179C520.11 131.179 514.62 126.969 514.62 111.049V70.9194H508.26L508.01 69.2095H514.62V50.5295L525.47 48.6895V69.2095H540.31L539.94 70.9194H525.47V110.649C525.47 121.179 529.09 124.729 534.95 124.729C538.57 124.729 541.56 121.969 542.56 119.209L543.81 119.869L543.82 119.859Z" fill="#FFFFFF"></path><path d="M371.989 149.29V151C363.759 151 360.639 151 349.289 182.44L327.829 241.91H326.079C310.739 203.23 295.889 160.6 295.889 160.6C292.269 151.26 288.279 150.99 284.039 150.99V149.28H317.599V150.99C307.249 150.99 309.869 161.78 310.109 162.7L332.319 225.46L347.789 182.17C351.659 169.94 359.019 150.99 341.049 150.99V149.28H371.989V149.29Z" fill="#FFFFFF"></path><path d="M412.711 226.39C411.341 232.57 404.481 243.1 389.761 243.1C374.171 243.1 363.061 229.42 363.061 212.05C363.061 192.58 374.791 179.95 390.251 179.95C404.721 179.95 414.701 189.69 414.701 210.34H374.781C375.281 228.1 382.761 235.21 392.621 236.26C400.101 237.05 408.961 232.18 411.211 225.73L412.711 226.39ZM403.981 208.63C403.981 189.42 395.871 181.66 389.881 181.66C382.771 181.66 374.791 192.05 374.791 208.63H403.981Z" fill="#FFFFFF"></path><path d="M462.61 182.85C465.1 186.01 464.73 190.48 461.74 193.11C458.87 195.61 454.63 195.35 452.01 192.19C450.89 190.74 450.26 188.9 450.64 187.19C451.01 184.95 442.66 188.11 438.79 196.93V229.69C438.79 237.06 439.41 239.03 443.9 240.22V241.93H422.82V240.22C427.56 238.77 427.81 236.54 427.81 229.69V193.25C427.81 188.65 426.69 186.81 421.57 185.36V183.78L438.79 179.96V193.77C443.4 184.82 450.51 181.01 455.51 180.35C457.76 180.09 460.87 180.75 462.62 182.85H462.61Z" fill="#FFFFFF"></path><path d="M556.29 241.92H535.33V240.34C540.07 238.89 540.32 236.4 540.32 229.68V201.4C540.32 191.93 536.95 186.53 528.97 186.53C522.73 186.53 517.49 193.24 517.49 198.11V229.69C517.49 236.93 518.11 239.16 522.6 240.35V241.93H501.64V240.35C506.38 238.9 506.63 236.41 506.63 229.69V201.41C506.63 191.94 503.26 186.54 495.28 186.54C489.04 186.54 484.43 193.38 483.55 197.86V229.83C483.55 237.07 484.17 239.04 488.66 240.22V241.93H467.7V240.22C472.44 238.77 472.57 236.54 472.57 229.83V193.65C472.57 189.05 471.57 186.81 466.33 185.36V183.78L483.55 179.96V193.51C486.29 186.01 493.28 179.96 501.14 179.96C509.87 179.96 515.49 184.17 517.11 194.04C519.36 186.28 526.84 179.96 534.82 179.96C545.05 179.96 551.16 185.09 551.16 201.01V229.69C551.16 236.93 551.91 239.16 556.27 240.35V241.93L556.29 241.92Z" fill="#FFFFFF"></path><path d="M612.55 226.39C611.18 232.57 604.32 243.1 589.6 243.1C574.01 243.1 562.9 229.42 562.9 212.05C562.9 192.58 574.63 179.95 590.09 179.95C604.56 179.95 614.54 189.69 614.54 210.34H574.62C575.12 228.1 582.6 235.21 592.46 236.26C599.94 237.05 608.8 232.18 611.05 225.73L612.55 226.39ZM603.82 208.63C603.82 189.42 595.71 181.66 589.72 181.66C582.61 181.66 574.63 192.05 574.63 208.63H603.82Z" fill="#FFFFFF"></path><path d="M645.481 241.92H624.521V240.21C629.261 238.76 629.511 236.4 629.511 229.68V193.24C629.511 188.64 628.511 186.8 623.271 185.35V183.77L640.361 179.95V229.68C640.361 237.05 640.981 239.02 645.471 240.21V241.92H645.481ZM627.391 162.32C627.391 158.51 630.131 155.61 633.751 155.61C637.371 155.61 640.111 158.51 640.111 162.32C640.111 166.13 637.241 169.03 633.751 169.03C630.261 169.03 627.391 166 627.391 162.32Z" fill="#FFFFFF"></path><path d="M675.3 241.92H654.34V240.21C659.08 238.76 659.33 236.53 659.33 229.82V157.59C659.33 152.98 658.21 151.14 653.09 150.09V148.38L670.31 144.83V229.82C670.31 237.06 670.93 239.03 675.3 240.21V241.92Z" fill="#FFFFFF"></path><path d="M695.18 234.81C695.18 230.47 698.42 226.92 702.54 226.92C706.66 226.92 709.9 230.47 709.9 234.81C709.9 239.15 706.53 242.57 702.54 242.57C698.55 242.57 695.18 239.15 695.18 234.81Z" fill="#FFFFFF"></path><path d="M211.678 76.8398C195.588 77.4698 181.408 65.3598 179.878 49.5198C178.158 31.6898 192.278 16.2998 210.388 16.2998C227.498 16.2998 241.038 30.0298 241.038 46.5798C241.038 63.0598 228.168 76.1798 211.668 76.8398" fill="#FFFFFF"></path><path d="M78.4091 16.6602H16.3691V22.0702C24.7391 22.0702 36.3291 22.3902 46.9491 47.8302C46.9491 47.8302 50.4891 53.2402 129.349 240.53H134.819L153.249 192.58C108.119 85.3902 87.6591 37.7902 78.4091 16.6702" fill="#FFFFFF"></path></svg>